<svg xmlns="http://www.w3.org/2000/svg" viewBox="0 0 104.57 105.01"><defs><style>.cls-1{fill:#b9dec9;}.cls-2{fill:#2c9678;}.cls-3{fill:#40a070;}.cls-4{fill:#5dbe8a;}.cls-5{fill:#fff;}</style></defs><g id="图层_2" data-name="图层 2"><g id="图层_1-2" data-name="图层 1"><path class="cls-1" d="M39.07,89.34c0,1.66-.92,3.4-2.83,5.31a18.26,18.26,0,0,1-14.52,5.29A18.45,18.45,0,0,1,8.23,92.1a18.22,18.22,0,0,1,3.12-24.21,6.74,6.74,0,0,1,4.35-2c3,0,6.29,2.91,11.76,8.44.52.52,1.05,1.06,1.59,1.59l1.6,1.59C35.16,82,39.06,85.89,39.07,89.34Z"/><path class="cls-2" d="M98.48,54.19a12.69,12.69,0,0,1-6.2,16.64L42.06,83a31.76,31.76,0,0,0-4-5L81,48.08a14.24,14.24,0,0,1,10-.34A12.17,12.17,0,0,1,98.48,54.19Z"/><path class="cls-3" d="M78.07,26.19A12.68,12.68,0,0,1,78.22,44L34.94,74l-4.71-4.71L60.31,26A12.68,12.68,0,0,1,78.07,26.19Z"/><path class="cls-4" d="M56.67,13.31a14.32,14.32,0,0,1-.55,10.08L26.28,66.26a29.42,29.42,0,0,0-4.73-3.54L33.76,12.31A12.68,12.68,0,0,1,50.4,6.11,11.59,11.59,0,0,1,56.67,13.31Z"/><path class="cls-5" d="M103,52.15a17.7,17.7,0,0,1-8.92,23.34l-.43.14L43.92,87.69a9.88,9.88,0,0,1,.15,1.63c0,3.07-1.4,6-4.3,8.87A23.24,23.24,0,0,1,23.31,105c-.67,0-1.35,0-2-.09A23.28,23.28,0,0,1,8.12,64.07c3.08-2.61,6-3.41,8.69-3.06L29,10.68l.09-.21A17.67,17.67,0,0,1,52.44,1.55a16.55,16.55,0,0,1,9,10.22,19.15,19.15,0,0,1,.85,7.1A17.65,17.65,0,0,1,85.37,42a19.59,19.59,0,0,1,7.31,1A17.1,17.1,0,0,1,103,52.15ZM92.28,70.83a12.69,12.69,0,0,0,6.2-16.64,12.17,12.17,0,0,0-7.4-6.45,14.24,14.24,0,0,0-10,.34L38.05,78a31.76,31.76,0,0,1,4,5ZM78.22,44A12.67,12.67,0,0,0,60.31,26L30.23,69.32,34.94,74ZM56.12,23.39a14.32,14.32,0,0,0,.55-10.08,11.59,11.59,0,0,0-6.27-7.2,12.68,12.68,0,0,0-16.64,6.2L21.55,62.72a29.42,29.42,0,0,1,4.73,3.54ZM36.24,94.65c1.91-1.91,2.84-3.65,2.83-5.31,0-3.45-3.91-7.31-8.42-11.78L29.05,76c-.54-.53-1.07-1.07-1.59-1.59C22,68.85,18.74,65.94,15.7,65.94a6.74,6.74,0,0,0-4.35,2A18.22,18.22,0,0,0,8.23,92.1a18.45,18.45,0,0,0,13.49,7.84A18.26,18.26,0,0,0,36.24,94.65Z"/></g></g></svg>