<?xml version="1.0" encoding="UTF-8"?>
<svg id="_图层_2" data-name="图层 2" xmlns="http://www.w3.org/2000/svg" viewBox="0 0 333.44 74.22">
  <defs>
    <style>
      .cls-1 {
        fill: #fff;
      }

      .cls-2 {
        fill: #38c189;
      }

      .cls-3 {
        fill: #2c9678;
      }

      .cls-4 {
        fill: #40a070;
      }

      .cls-5 {
        fill: #5dbe8a;
      }

      .cls-6 {
        fill: #b9dec9;
      }
    </style>
  </defs>
  <g id="_图层_1-2" data-name="图层 1">
    <g>
      <g id="_图层_2-2" data-name="图层 2">
        <g id="_图层_1-2" data-name="图层 1-2">
          <path class="cls-6" d="M290.3,53.94c.82,.82,1.23,2.13,1.23,4.02,0,3.78-1.67,7.36-4.56,9.79-2.93,2.44-6.78,3.46-10.54,2.79-6.42-1.16-10.92-7-10.42-13.5,0-1.15,.4-2.27,1.16-3.14,1.48-1.48,4.54-1.67,9.98-1.64,.51,0,1.04,0,1.57,0h1.58c4.45-.01,8.29-.02,10,1.68Z"/>
          <path class="cls-3" d="M302.29,7.23c4.5,1.73,6.79,6.74,5.16,11.28l-18.8,30.82c-1.46-.31-2.95-.48-4.45-.49l6.43-35.99c.92-2.22,2.62-4.04,4.77-5.11,2.12-1.13,4.62-1.32,6.88-.51Z"/>
          <path class="cls-4" d="M278.37,3.48c4.85,0,8.8,3.88,8.87,8.72l-6.56,36.2h-4.65s-6.53-36.24-6.53-36.24c.1-4.83,4.04-8.68,8.87-8.68Z"/>
          <path class="cls-5" d="M261.44,7.69c2.15,1.12,3.83,2.99,4.71,5.25l6.44,35.92c-1.38,.06-2.75,.26-4.09,.59l-18.87-30.93c-1.64-4.54,.65-9.55,5.16-11.28,2.18-.81,4.6-.64,6.65,.46Z"/>
          <path class="cls-1" d="M303.51,3.99c6.36,2.44,9.54,9.57,7.12,15.94l-.14,.28-18.61,30.52c.31,.22,.61,.46,.88,.73,1.52,1.52,2.27,3.66,2.26,6.51,0,4.31-1.71,8.45-4.77,11.49-.33,.33-.67,.67-1.03,.94-6.87,5.78-17.13,4.9-22.91-1.97-2.74-3.25-4.09-7.45-3.77-11.69,.23-2.81,1.28-4.65,2.78-5.8l-18.84-30.88-.06-.15c-2.43-6.37,.75-13.5,7.12-15.94,0,0,0,0,0,0,3.1-1.17,6.56-.95,9.49,.6,1.49,.77,2.82,1.82,3.93,3.09,2.58-6.3,9.79-9.31,16.09-6.73,3.06,1.26,5.49,3.69,6.74,6.76,1.16-1.29,2.55-2.35,4.1-3.12,2.98-1.53,6.47-1.74,9.62-.58Zm3.93,14.52c1.64-4.54-.65-9.55-5.16-11.28-2.25-.81-4.73-.64-6.84,.47-2.16,1.07-3.85,2.88-4.77,5.11l-6.48,36.04c1.49,.01,2.98,.18,4.45,.49l18.8-30.82Zm-20.2-6.31c.01-4.9-3.95-8.88-8.85-8.89-4.9-.01-8.88,3.95-8.89,8.85l6.54,36.26h4.64s6.56-36.21,6.56-36.21Zm-21.1,.74c-.88-2.26-2.55-4.13-4.71-5.25-2.05-1.1-4.47-1.27-6.65-.46-4.51,1.73-6.8,6.74-5.16,11.28l18.87,30.93c1.34-.33,2.71-.53,4.09-.59l-6.44-35.92Zm25.38,45.02c0-1.89-.4-3.21-1.23-4.02-1.7-1.7-5.54-1.68-9.98-1.66l-1.56,.02c-.53,0-1.06,0-1.57,0-5.44-.05-8.49,.12-9.99,1.63-.76,.87-1.17,1.98-1.16,3.14-.49,6.49,3.99,12.3,10.39,13.48,3.75,.67,7.61-.35,10.54-2.79,2.89-2.43,4.56-6.01,4.56-9.79Z"/>
        </g>
      </g>
      <g>
        <path class="cls-2" d="M12.27,42.95c6.45,0,9.79,2.95,9.79,7.34,0,3.29-2.15,6.24-7.25,7.25,6.24,.72,8.81,3.84,8.81,7.76,0,4.34-3.37,8.27-11.47,8.27H0v-1.35l4.51-.42c.04-4.09,.04-8.22,.04-12.4v-2.36c0-4.13,0-8.27-.04-12.36l-4.51-.42v-1.31H12.27Zm-4.55,1.52c-.04,4.01-.04,8.1-.04,12.4h2.78c5.78,0,8.6-2.28,8.6-6.5,0-3.92-2.36-5.9-7.8-5.9h-3.54Zm3.84,27.54c5.78,0,8.86-2.4,8.86-6.75s-2.91-6.83-9.66-6.83h-3.08c0,5.15,0,9.45,.04,13.58h3.84Z"/>
        <path class="cls-2" d="M62.59,72.22v1.35h-11.94v-1.35l4.72-.42-2.91-8.77h-10.92l-2.83,8.73,4.34,.46v1.35h-9.83v-1.35l3.71-.42,9.74-29.14h2.02l9.91,29.19,3.96,.38Zm-10.63-10.67l-5.02-15.06-4.89,15.06h9.91Z"/>
        <path class="cls-2" d="M85.91,42.95c9.07,0,14.85,5.4,14.85,15.31s-6.16,15.31-15.56,15.31h-12.02v-1.35l4.51-.42c.04-4.05,.04-8.31,.04-13.24v-1.31c0-4.3,0-8.48-.04-12.57l-4.51-.42v-1.31h12.74Zm-1.1,29.06c8.22,0,12.44-5.19,12.44-13.71,0-9.03-4.26-13.83-11.89-13.83h-4.43c-.08,4.13-.08,8.35-.08,12.78v1.31c0,4.93,0,9.28,.08,13.45h3.88Z"/>
        <path class="cls-2" d="M145,44.68c-.08,4.05-.08,8.18-.08,12.4v2.36c0,4.09,0,8.22,.08,12.36l4.51,.42v1.35h-11.98v-1.35l4.26-.42c.08-4.05,.04-8.18,.08-12.15l.04-13.12-10.88,27.03h-1.48l-11.26-27.16,.25,10.21v15.1l4.18,.51v1.35h-10.08v-1.35l4.17-.51v-26.99l-4.34-.46v-1.31h7.46l10.97,26.53,10.67-26.53h7.93v1.31l-4.51,.42Z"/>
        <path class="cls-2" d="M170.26,44.68c-.08,4.05-.08,8.18-.08,12.4v2.36c0,4.09,0,8.22,.08,12.36l4.47,.42v1.35h-12.23v-1.35l4.51-.42c.04-4.05,.04-8.22,.04-12.36v-2.36c0-4.18,0-8.31-.04-12.4l-4.51-.42v-1.31h12.23v1.31l-4.47,.42Z"/>
        <path class="cls-2" d="M217.12,44.26l-3.96,.51-.04,29.14h-1.31l-18.81-26.53,.08,24.34,4.93,.51v1.35h-10.67v-1.35l3.96-.46,.08-26.65-.34-.46-3.71-.38v-1.31h6.33l17.76,25.22-.04-23.41-4.93-.51v-1.31h10.67v1.31Z"/>
        <path class="cls-2" d="M242.59,44.55c-.04,4.09-.04,8.27-.04,12.53v2.36c0,4.09,0,8.22,.04,12.36l4.98,.42v1.35h-13.12v-1.35l4.89-.42c.13-4.05,.13-8.22,.13-12.36v-2.36c0-4.22,0-8.39-.13-12.53h-8.18l-1.05,6.28h-1.86l.38-7.89h24.71l.42,7.89h-1.86l-1.1-6.28h-8.22Z"/>
        <path class="cls-2" d="M333.44,44.26l-3.96,.51-.04,29.14h-1.31l-18.81-26.53,.08,24.34,4.93,.51v1.35h-10.67v-1.35l3.96-.46,.08-26.65-.34-.46-3.71-.38v-1.31h6.33l17.76,25.22-.04-23.41-4.93-.51v-1.31h10.67v1.31Z"/>
      </g>
    </g>
  </g>
</svg>